<?xml version="1.0" encoding="utf-8"?>
<!-- Generator: Adobe Illustrator 27.5.0, SVG Export Plug-In . SVG Version: 6.00 Build 0)  -->
<svg version="1.1" xmlns="http://www.w3.org/2000/svg" xmlns:xlink="http://www.w3.org/1999/xlink" x="0px" y="0px"
	 viewBox="0 0 500 500" style="enable-background:new 0 0 500 500;" xml:space="preserve">
<g id="BACKGROUND">
	<rect style="fill:#F7F9FA;" width="500" height="500"/>
</g>
<g id="OBJECTS">
	<g>
		<g>
			<g>
				<linearGradient id="SVGID_1_" gradientUnits="userSpaceOnUse" x1="313.3545" y1="103.746" x2="313.3545" y2="282.8238">
					<stop  offset="0" style="stop-color:#FBD15B"/>
					<stop  offset="1" style="stop-color:#DB840A"/>
				</linearGradient>
				<path style="fill:url(#SVGID_1_);" d="M318.139,99.516l-11.786,11.786v173.029h14.004V97.324L318.139,99.516z M308.931,114.965
					l8.305,8.279l-8.305,8.305V114.965z M308.931,137.789l8.305,8.304l-8.305,8.279V137.789z M308.931,160.614l8.305,8.305
					l-8.305,8.279V160.614z M308.931,183.439l8.305,8.305l-8.305,8.279V183.439z M308.931,206.263l8.305,8.304l-8.305,8.305V206.263
					z M308.931,229.113l8.305,8.279l-8.305,8.304V229.113z M308.931,251.938l8.305,8.279l-8.305,8.305V251.938z M308.931,281.752
					v-6.989l6.989,6.989H308.931z M317.777,279.947l-8.305-8.305l8.305-8.33V279.947z M317.777,257.122l-8.305-8.305l8.305-8.33
					V257.122z M317.777,234.297l-8.305-8.304l8.305-8.33V234.297z M317.777,211.473l-8.305-8.331l8.305-8.304V211.473z
					 M317.777,188.648l-8.305-8.33l8.305-8.305V188.648z M317.777,165.824l-8.305-8.33l8.305-8.305V165.824z M317.777,142.999
					l-8.305-8.33l8.305-8.33V142.999z M317.777,120.148l-8.305-8.304l8.305-8.305V120.148z"/>
			</g>
			<g>
				
					<linearGradient id="SVGID_00000093141631335603414230000012353977324725353381_" gradientUnits="userSpaceOnUse" x1="272.3733" y1="124.4298" x2="272.3733" y2="110.4256">
					<stop  offset="0" style="stop-color:#FBD15B"/>
					<stop  offset="1" style="stop-color:#DB840A"/>
				</linearGradient>
				<path style="fill:url(#SVGID_00000093141631335603414230000012353977324725353381_);" d="M213.094,110.426l14.004,14.004
					h104.555v-14.004H213.094z M327.243,113.005l-8.305,8.304l-8.33-8.304H327.243z M304.418,113.005l-8.305,8.304l-8.33-8.304
					H304.418z M281.593,113.005l-8.305,8.304l-8.33-8.304H281.593z M258.769,113.005l-8.305,8.304l-8.33-8.304H258.769z
					 M219.335,113.005h16.609l-8.305,8.304L219.335,113.005z M230.76,121.851l8.279-8.305l8.305,8.305H230.76z M253.585,121.851
					l8.279-8.305l8.304,8.305H253.585z M276.41,121.851l8.279-8.305l8.305,8.305H276.41z M299.234,121.851l8.279-8.305l8.305,8.305
					H299.234z M329.074,121.851h-7.015l7.015-7.015V121.851z"/>
			</g>
			<g>
				
					<linearGradient id="SVGID_00000098917283313675427190000005343221648514315420_" gradientUnits="userSpaceOnUse" x1="274.9354" y1="128.7447" x2="294.6148" y2="161.5436">
					<stop  offset="0" style="stop-color:#878CB4"/>
					<stop  offset="0.7889" style="stop-color:#65579A"/>
					<stop  offset="1" style="stop-color:#7774A8"/>
				</linearGradient>
				
					<rect x="274.427" y="134.747" style="fill:url(#SVGID_00000098917283313675427190000005343221648514315420_);" width="20.549" height="20.549"/>
				<g>
					
						<linearGradient id="SVGID_00000086690150038283284330000004833331857972963251_" gradientUnits="userSpaceOnUse" x1="277.6991" y1="134.747" x2="277.6991" y2="121.8505">
						<stop  offset="0" style="stop-color:#FBD15B"/>
						<stop  offset="1" style="stop-color:#DB840A"/>
					</linearGradient>
					
						<rect x="276.41" y="121.851" style="fill:url(#SVGID_00000086690150038283284330000004833331857972963251_);" width="2.579" height="12.896"/>
				</g>
				<g>
					
						<linearGradient id="SVGID_00000152244093572630748990000016880836886204359307_" gradientUnits="userSpaceOnUse" x1="291.7033" y1="134.747" x2="291.7033" y2="121.8505">
						<stop  offset="0" style="stop-color:#FBD15B"/>
						<stop  offset="1" style="stop-color:#DB840A"/>
					</linearGradient>
					
						<rect x="290.414" y="121.851" style="fill:url(#SVGID_00000152244093572630748990000016880836886204359307_);" width="2.579" height="12.896"/>
				</g>
			</g>
		</g>
		<g>
			
				<linearGradient id="SVGID_00000046323079901203042240000006143123613711770013_" gradientUnits="userSpaceOnUse" x1="186.6651" y1="103.7461" x2="186.6651" y2="282.8239">
				<stop  offset="0" style="stop-color:#FBD15B"/>
				<stop  offset="1" style="stop-color:#DB840A"/>
			</linearGradient>
			<path style="fill:url(#SVGID_00000046323079901203042240000006143123613711770013_);" d="M179.676,120.075v164.26h13.978V134.053
				L179.676,120.075z M182.255,126.29l6.86,6.886l1.418,1.419l-1.161,1.16l-7.118,7.144V126.29z M182.255,149.089l8.279,8.33
				l-8.279,8.33V149.089z M190.534,180.244l-8.279,8.33v-16.635L190.534,180.244z M190.534,203.069l-8.279,8.33v-16.635
				L190.534,203.069z M190.534,225.893l-8.279,8.33v-16.635L190.534,225.893z M190.534,248.744l-8.279,8.305v-16.635
				L190.534,248.744z M182.255,263.238l8.279,8.33l-8.279,8.304V263.238z M191.075,281.756h-7.066l7.066-7.067V281.756z
				 M191.075,268.448l-8.279-8.305l8.279-8.279V268.448z M191.075,245.623l-8.279-8.305l8.279-8.304V245.623z M191.075,222.773
				l-8.279-8.279l8.279-8.305V222.773z M191.075,199.948l-8.279-8.279l8.279-8.305V199.948z M191.075,177.123l-8.279-8.279
				l8.279-8.305V177.123z M191.075,154.299l-7.092-7.118l-1.186-1.186l1.393-1.393l6.886-6.886V154.299z"/>
			
				<linearGradient id="SVGID_00000074410966110746605980000007340493865440373951_" gradientUnits="userSpaceOnUse" x1="204.8021" y1="147.1771" x2="204.8021" y2="133.1729">
				<stop  offset="0" style="stop-color:#FBD15B"/>
				<stop  offset="1" style="stop-color:#DB840A"/>
			</linearGradient>
			<path style="fill:url(#SVGID_00000074410966110746605980000007340493865440373951_);" d="M168.347,133.173v14.004h58.88
				l14.03-14.004H168.347z M170.926,144.598v-7.041l6.989,7.041H170.926z M179.669,142.69l-6.912-6.938h16.609l-7.118,7.092
				l-1.212,1.212L179.669,142.69z M184.183,144.598l6.886-6.886l1.393-1.419l8.305,8.305H184.183z M195.556,135.752h16.661
				l-8.356,8.304L195.556,135.752z M206.981,144.598l8.331-8.305l8.253,8.305H206.981z M226.685,144.056l-8.304-8.304h16.609
				L226.685,144.056z"/>
		</g>
		<g>
			<g>
				
					<linearGradient id="SVGID_00000115478633224598681010000002727499165003660222_" gradientUnits="userSpaceOnUse" x1="204.0837" y1="155.1174" x2="303.3372" y2="310.6145">
					<stop  offset="0" style="stop-color:#878CB4"/>
					<stop  offset="0.7889" style="stop-color:#65579A"/>
					<stop  offset="1" style="stop-color:#7774A8"/>
				</linearGradient>
				
					<rect x="232.535" y="171.189" style="fill:url(#SVGID_00000115478633224598681010000002727499165003660222_);" width="35.832" height="113.142"/>
				
					<linearGradient id="SVGID_00000052098382642883614740000014166170385685412501_" gradientUnits="userSpaceOnUse" x1="250.4513" y1="128.9575" x2="250.4513" y2="171.6856">
					<stop  offset="0" style="stop-color:#878CB4"/>
					<stop  offset="0.7889" style="stop-color:#65579A"/>
					<stop  offset="1" style="stop-color:#7774A8"/>
				</linearGradient>
				<polygon style="fill:url(#SVGID_00000052098382642883614740000014166170385685412501_);" points="260.249,161.279 
					240.654,161.279 232.535,171.189 268.367,171.189 				"/>
				
					<linearGradient id="SVGID_00000029016667430797782840000012623217775849628294_" gradientUnits="userSpaceOnUse" x1="248.1122" y1="152.1082" x2="260.4388" y2="184.2942">
					<stop  offset="0" style="stop-color:#878CB4"/>
					<stop  offset="0.7889" style="stop-color:#65579A"/>
					<stop  offset="1" style="stop-color:#7774A8"/>
				</linearGradient>
				<path style="fill:url(#SVGID_00000029016667430797782840000012623217775849628294_);" d="M245.165,150.641h10.572
					c1.762,1.762,2.75,2.75,4.512,4.512v6.126h-19.595v-6.126C242.416,153.391,243.404,152.403,245.165,150.641z"/>
				
					<linearGradient id="SVGID_00000000195828759724082130000015650209594879148713_" gradientUnits="userSpaceOnUse" x1="244.9305" y1="132.6165" x2="256.0556" y2="151.1583">
					<stop  offset="0" style="stop-color:#878CB4"/>
					<stop  offset="0.7889" style="stop-color:#65579A"/>
					<stop  offset="1" style="stop-color:#7774A8"/>
				</linearGradient>
				
					<rect x="249.668" y="132.995" style="fill:url(#SVGID_00000000195828759724082130000015650209594879148713_);" width="1.567" height="17.647"/>
			</g>
			
				<linearGradient id="SVGID_00000127045290902475477220000009658847721832022940_" gradientUnits="userSpaceOnUse" x1="927.4367" y1="165.8348" x2="1006.0119" y2="296.7933" gradientTransform="matrix(-1 0 0 1 1183.3199 0)">
				<stop  offset="0" style="stop-color:#878CB4"/>
				<stop  offset="0.7889" style="stop-color:#65579A"/>
				<stop  offset="1" style="stop-color:#7774A8"/>
			</linearGradient>
			<polygon style="fill:url(#SVGID_00000127045290902475477220000009658847721832022940_);" points="196.676,189.97 
				229.512,172.758 229.512,284.331 196.676,284.331 			"/>
			<g>
				<g>
					
						<linearGradient id="SVGID_00000046307274200895007540000002252650399249546660_" gradientUnits="userSpaceOnUse" x1="238.7898" y1="177.0808" x2="238.7898" y2="253.8407">
						<stop  offset="0" style="stop-color:#EEEFF5"/>
						<stop  offset="1" style="stop-color:#8D86A1"/>
					</linearGradient>
					
						<rect x="236.925" y="177.633" style="fill:url(#SVGID_00000046307274200895007540000002252650399249546660_);" width="3.73" height="3.73"/>
					
						<linearGradient id="SVGID_00000114775593430565952080000015848788691043282598_" gradientUnits="userSpaceOnUse" x1="246.5641" y1="177.0808" x2="246.5641" y2="253.8407">
						<stop  offset="0" style="stop-color:#EEEFF5"/>
						<stop  offset="1" style="stop-color:#8D86A1"/>
					</linearGradient>
					
						<rect x="244.699" y="177.633" style="fill:url(#SVGID_00000114775593430565952080000015848788691043282598_);" width="3.73" height="3.73"/>
					
						<linearGradient id="SVGID_00000107589851427523696220000007466362630735192229_" gradientUnits="userSpaceOnUse" x1="254.3385" y1="177.0808" x2="254.3385" y2="253.8407">
						<stop  offset="0" style="stop-color:#EEEFF5"/>
						<stop  offset="1" style="stop-color:#8D86A1"/>
					</linearGradient>
					
						<rect x="252.473" y="177.633" style="fill:url(#SVGID_00000107589851427523696220000007466362630735192229_);" width="3.73" height="3.73"/>
				</g>
				<g>
					
						<linearGradient id="SVGID_00000062151157507121433330000016881118960120462216_" gradientUnits="userSpaceOnUse" x1="238.7898" y1="177.0809" x2="238.7898" y2="253.8388">
						<stop  offset="0" style="stop-color:#EEEFF5"/>
						<stop  offset="1" style="stop-color:#8D86A1"/>
					</linearGradient>
					
						<rect x="236.925" y="185.328" style="fill:url(#SVGID_00000062151157507121433330000016881118960120462216_);" width="3.73" height="3.73"/>
					
						<linearGradient id="SVGID_00000078019400755208666290000001262389069952731815_" gradientUnits="userSpaceOnUse" x1="246.5641" y1="177.0809" x2="246.5641" y2="253.8388">
						<stop  offset="0" style="stop-color:#EEEFF5"/>
						<stop  offset="1" style="stop-color:#8D86A1"/>
					</linearGradient>
					
						<rect x="244.699" y="185.328" style="fill:url(#SVGID_00000078019400755208666290000001262389069952731815_);" width="3.73" height="3.73"/>
					
						<linearGradient id="SVGID_00000062885128759316142530000008492853408283765685_" gradientUnits="userSpaceOnUse" x1="262.1128" y1="177.0809" x2="262.1128" y2="253.8388">
						<stop  offset="0" style="stop-color:#EEEFF5"/>
						<stop  offset="1" style="stop-color:#8D86A1"/>
					</linearGradient>
					
						<rect x="260.248" y="185.328" style="fill:url(#SVGID_00000062885128759316142530000008492853408283765685_);" width="3.73" height="3.73"/>
				</g>
				<g>
					
						<linearGradient id="SVGID_00000136377025315819126110000010921942980776176260_" gradientUnits="userSpaceOnUse" x1="246.5641" y1="177.081" x2="246.5641" y2="253.8388">
						<stop  offset="0" style="stop-color:#EEEFF5"/>
						<stop  offset="1" style="stop-color:#8D86A1"/>
					</linearGradient>
					
						<rect x="244.699" y="193.023" style="fill:url(#SVGID_00000136377025315819126110000010921942980776176260_);" width="3.73" height="3.73"/>
					
						<linearGradient id="SVGID_00000144313915787335838210000017564685049216578221_" gradientUnits="userSpaceOnUse" x1="254.3385" y1="177.081" x2="254.3385" y2="253.8388">
						<stop  offset="0" style="stop-color:#EEEFF5"/>
						<stop  offset="1" style="stop-color:#8D86A1"/>
					</linearGradient>
					
						<rect x="252.473" y="193.023" style="fill:url(#SVGID_00000144313915787335838210000017564685049216578221_);" width="3.73" height="3.73"/>
					
						<linearGradient id="SVGID_00000103982952829460451590000010197582742468420998_" gradientUnits="userSpaceOnUse" x1="262.1128" y1="177.081" x2="262.1128" y2="253.8388">
						<stop  offset="0" style="stop-color:#EEEFF5"/>
						<stop  offset="1" style="stop-color:#8D86A1"/>
					</linearGradient>
					
						<rect x="260.248" y="193.023" style="fill:url(#SVGID_00000103982952829460451590000010197582742468420998_);" width="3.73" height="3.73"/>
				</g>
				<g>
					
						<linearGradient id="SVGID_00000111189597403166746950000004066231249716291740_" gradientUnits="userSpaceOnUse" x1="238.7898" y1="177.0811" x2="238.7898" y2="253.8389">
						<stop  offset="0" style="stop-color:#EEEFF5"/>
						<stop  offset="1" style="stop-color:#8D86A1"/>
					</linearGradient>
					
						<rect x="236.925" y="200.718" style="fill:url(#SVGID_00000111189597403166746950000004066231249716291740_);" width="3.73" height="3.73"/>
					
						<linearGradient id="SVGID_00000075877422446556256140000009516605238458574742_" gradientUnits="userSpaceOnUse" x1="254.3385" y1="177.0811" x2="254.3385" y2="253.8389">
						<stop  offset="0" style="stop-color:#EEEFF5"/>
						<stop  offset="1" style="stop-color:#8D86A1"/>
					</linearGradient>
					
						<rect x="252.473" y="200.718" style="fill:url(#SVGID_00000075877422446556256140000009516605238458574742_);" width="3.73" height="3.73"/>
					
						<linearGradient id="SVGID_00000095320191540387504780000002135178108192982444_" gradientUnits="userSpaceOnUse" x1="262.1128" y1="177.0811" x2="262.1128" y2="253.8389">
						<stop  offset="0" style="stop-color:#EEEFF5"/>
						<stop  offset="1" style="stop-color:#8D86A1"/>
					</linearGradient>
					
						<rect x="260.248" y="200.718" style="fill:url(#SVGID_00000095320191540387504780000002135178108192982444_);" width="3.73" height="3.73"/>
				</g>
				<g>
					
						<linearGradient id="SVGID_00000069399277510118368860000002958749484434137014_" gradientUnits="userSpaceOnUse" x1="238.7898" y1="177.0811" x2="238.7898" y2="253.8389">
						<stop  offset="0" style="stop-color:#EEEFF5"/>
						<stop  offset="1" style="stop-color:#8D86A1"/>
					</linearGradient>
					
						<rect x="236.925" y="208.413" style="fill:url(#SVGID_00000069399277510118368860000002958749484434137014_);" width="3.73" height="3.73"/>
					
						<linearGradient id="SVGID_00000167392642023583631230000003791315261355378357_" gradientUnits="userSpaceOnUse" x1="246.5641" y1="177.0811" x2="246.5641" y2="253.8389">
						<stop  offset="0" style="stop-color:#EEEFF5"/>
						<stop  offset="1" style="stop-color:#8D86A1"/>
					</linearGradient>
					
						<rect x="244.699" y="208.413" style="fill:url(#SVGID_00000167392642023583631230000003791315261355378357_);" width="3.73" height="3.73"/>
					
						<linearGradient id="SVGID_00000147939738608958762720000013618758258983090817_" gradientUnits="userSpaceOnUse" x1="254.3385" y1="177.0811" x2="254.3385" y2="253.8389">
						<stop  offset="0" style="stop-color:#EEEFF5"/>
						<stop  offset="1" style="stop-color:#8D86A1"/>
					</linearGradient>
					
						<rect x="252.473" y="208.413" style="fill:url(#SVGID_00000147939738608958762720000013618758258983090817_);" width="3.73" height="3.73"/>
				</g>
				<g>
					
						<linearGradient id="SVGID_00000033328759508372607020000015843644321924888228_" gradientUnits="userSpaceOnUse" x1="238.7898" y1="177.0812" x2="238.7898" y2="253.839">
						<stop  offset="0" style="stop-color:#EEEFF5"/>
						<stop  offset="1" style="stop-color:#8D86A1"/>
					</linearGradient>
					
						<rect x="236.925" y="216.108" style="fill:url(#SVGID_00000033328759508372607020000015843644321924888228_);" width="3.73" height="3.73"/>
					
						<linearGradient id="SVGID_00000139293899044637364160000016958827205826142348_" gradientUnits="userSpaceOnUse" x1="246.5641" y1="177.0812" x2="246.5641" y2="253.839">
						<stop  offset="0" style="stop-color:#EEEFF5"/>
						<stop  offset="1" style="stop-color:#8D86A1"/>
					</linearGradient>
					
						<rect x="244.699" y="216.108" style="fill:url(#SVGID_00000139293899044637364160000016958827205826142348_);" width="3.73" height="3.73"/>
					
						<linearGradient id="SVGID_00000153695627212246348250000002859425075233086339_" gradientUnits="userSpaceOnUse" x1="254.3385" y1="177.0812" x2="254.3385" y2="253.839">
						<stop  offset="0" style="stop-color:#EEEFF5"/>
						<stop  offset="1" style="stop-color:#8D86A1"/>
					</linearGradient>
					
						<rect x="252.473" y="216.108" style="fill:url(#SVGID_00000153695627212246348250000002859425075233086339_);" width="3.73" height="3.73"/>
					
						<linearGradient id="SVGID_00000032639227339638802630000010137481445655506619_" gradientUnits="userSpaceOnUse" x1="262.1128" y1="177.0812" x2="262.1128" y2="253.839">
						<stop  offset="0" style="stop-color:#EEEFF5"/>
						<stop  offset="1" style="stop-color:#8D86A1"/>
					</linearGradient>
					
						<rect x="260.248" y="216.108" style="fill:url(#SVGID_00000032639227339638802630000010137481445655506619_);" width="3.73" height="3.73"/>
				</g>
				<g>
					
						<linearGradient id="SVGID_00000005974139659239788640000012265261018868921271_" gradientUnits="userSpaceOnUse" x1="238.7898" y1="177.0814" x2="238.7898" y2="253.8392">
						<stop  offset="0" style="stop-color:#EEEFF5"/>
						<stop  offset="1" style="stop-color:#8D86A1"/>
					</linearGradient>
					
						<rect x="236.925" y="223.803" style="fill:url(#SVGID_00000005974139659239788640000012265261018868921271_);" width="3.73" height="3.73"/>
					
						<linearGradient id="SVGID_00000183209427307292666620000013159080590778703750_" gradientUnits="userSpaceOnUse" x1="254.3385" y1="177.0814" x2="254.3385" y2="253.8392">
						<stop  offset="0" style="stop-color:#EEEFF5"/>
						<stop  offset="1" style="stop-color:#8D86A1"/>
					</linearGradient>
					
						<rect x="252.473" y="223.803" style="fill:url(#SVGID_00000183209427307292666620000013159080590778703750_);" width="3.73" height="3.73"/>
					
						<linearGradient id="SVGID_00000090980870548323324590000011843497685465613711_" gradientUnits="userSpaceOnUse" x1="262.1128" y1="177.0814" x2="262.1128" y2="253.8392">
						<stop  offset="0" style="stop-color:#EEEFF5"/>
						<stop  offset="1" style="stop-color:#8D86A1"/>
					</linearGradient>
					
						<rect x="260.248" y="223.803" style="fill:url(#SVGID_00000090980870548323324590000011843497685465613711_);" width="3.73" height="3.73"/>
				</g>
			</g>
			<g>
				<g>
					
						<linearGradient id="SVGID_00000046308587286288221070000007374648557397068162_" gradientUnits="userSpaceOnUse" x1="203.0402" y1="200.9475" x2="203.0402" y2="284.5442">
						<stop  offset="0" style="stop-color:#684BC2"/>
						<stop  offset="1" style="stop-color:#2C0070"/>
					</linearGradient>
					
						<rect x="201.432" y="241.576" style="fill:url(#SVGID_00000046308587286288221070000007374648557397068162_);" width="3.216" height="3.216"/>
					
						<linearGradient id="SVGID_00000165195341215025565190000009132531688519282323_" gradientUnits="userSpaceOnUse" x1="209.7425" y1="200.9475" x2="209.7425" y2="284.5442">
						<stop  offset="0" style="stop-color:#684BC2"/>
						<stop  offset="1" style="stop-color:#2C0070"/>
					</linearGradient>
					
						<rect x="208.135" y="241.576" style="fill:url(#SVGID_00000165195341215025565190000009132531688519282323_);" width="3.216" height="3.216"/>
					
						<linearGradient id="SVGID_00000110469872859051066800000009731092084095704471_" gradientUnits="userSpaceOnUse" x1="216.4448" y1="200.9475" x2="216.4448" y2="284.5442">
						<stop  offset="0" style="stop-color:#684BC2"/>
						<stop  offset="1" style="stop-color:#2C0070"/>
					</linearGradient>
					
						<rect x="214.837" y="241.576" style="fill:url(#SVGID_00000110469872859051066800000009731092084095704471_);" width="3.216" height="3.216"/>
				</g>
				<g>
					
						<linearGradient id="SVGID_00000090281479711386983490000003362609138288999835_" gradientUnits="userSpaceOnUse" x1="203.0402" y1="200.9473" x2="203.0402" y2="284.5439">
						<stop  offset="0" style="stop-color:#684BC2"/>
						<stop  offset="1" style="stop-color:#2C0070"/>
					</linearGradient>
					
						<rect x="201.432" y="234.942" style="fill:url(#SVGID_00000090281479711386983490000003362609138288999835_);" width="3.216" height="3.216"/>
					
						<linearGradient id="SVGID_00000032648507538031188210000013648200719238372227_" gradientUnits="userSpaceOnUse" x1="209.7425" y1="200.9473" x2="209.7425" y2="284.5439">
						<stop  offset="0" style="stop-color:#684BC2"/>
						<stop  offset="1" style="stop-color:#2C0070"/>
					</linearGradient>
					
						<rect x="208.135" y="234.942" style="fill:url(#SVGID_00000032648507538031188210000013648200719238372227_);" width="3.216" height="3.216"/>
					
						<linearGradient id="SVGID_00000127732618852253858230000001636322836023756465_" gradientUnits="userSpaceOnUse" x1="223.1472" y1="200.9473" x2="223.1472" y2="284.5439">
						<stop  offset="0" style="stop-color:#684BC2"/>
						<stop  offset="1" style="stop-color:#2C0070"/>
					</linearGradient>
					
						<rect x="221.539" y="234.942" style="fill:url(#SVGID_00000127732618852253858230000001636322836023756465_);" width="3.216" height="3.216"/>
				</g>
				<g>
					
						<linearGradient id="SVGID_00000110473183972261999170000008299260970996942990_" gradientUnits="userSpaceOnUse" x1="209.7425" y1="200.9474" x2="209.7425" y2="284.5441">
						<stop  offset="0" style="stop-color:#684BC2"/>
						<stop  offset="1" style="stop-color:#2C0070"/>
					</linearGradient>
					
						<rect x="208.135" y="228.309" style="fill:url(#SVGID_00000110473183972261999170000008299260970996942990_);" width="3.216" height="3.216"/>
					
						<linearGradient id="SVGID_00000119080374592878630800000005622284443089516979_" gradientUnits="userSpaceOnUse" x1="216.4449" y1="200.9474" x2="216.4449" y2="284.5441">
						<stop  offset="0" style="stop-color:#684BC2"/>
						<stop  offset="1" style="stop-color:#2C0070"/>
					</linearGradient>
					
						<rect x="214.837" y="228.309" style="fill:url(#SVGID_00000119080374592878630800000005622284443089516979_);" width="3.216" height="3.216"/>
					
						<linearGradient id="SVGID_00000011005907434440006920000002580271800628038306_" gradientUnits="userSpaceOnUse" x1="223.1472" y1="200.9474" x2="223.1472" y2="284.5441">
						<stop  offset="0" style="stop-color:#684BC2"/>
						<stop  offset="1" style="stop-color:#2C0070"/>
					</linearGradient>
					
						<rect x="221.539" y="228.309" style="fill:url(#SVGID_00000011005907434440006920000002580271800628038306_);" width="3.216" height="3.216"/>
				</g>
				<g>
					
						<linearGradient id="SVGID_00000142169310851047822160000006811821835571020194_" gradientUnits="userSpaceOnUse" x1="203.0402" y1="200.9473" x2="203.0402" y2="284.5439">
						<stop  offset="0" style="stop-color:#684BC2"/>
						<stop  offset="1" style="stop-color:#2C0070"/>
					</linearGradient>
					
						<rect x="201.432" y="221.675" style="fill:url(#SVGID_00000142169310851047822160000006811821835571020194_);" width="3.216" height="3.216"/>
					
						<linearGradient id="SVGID_00000173868994297006778680000002663774102962062501_" gradientUnits="userSpaceOnUse" x1="216.4449" y1="200.9472" x2="216.4449" y2="284.5439">
						<stop  offset="0" style="stop-color:#684BC2"/>
						<stop  offset="1" style="stop-color:#2C0070"/>
					</linearGradient>
					
						<rect x="214.837" y="221.675" style="fill:url(#SVGID_00000173868994297006778680000002663774102962062501_);" width="3.216" height="3.216"/>
					
						<linearGradient id="SVGID_00000132780099062941255180000009982183210307685298_" gradientUnits="userSpaceOnUse" x1="223.1472" y1="200.9472" x2="223.1472" y2="284.5439">
						<stop  offset="0" style="stop-color:#684BC2"/>
						<stop  offset="1" style="stop-color:#2C0070"/>
					</linearGradient>
					
						<rect x="221.539" y="221.675" style="fill:url(#SVGID_00000132780099062941255180000009982183210307685298_);" width="3.216" height="3.216"/>
				</g>
				<g>
					
						<linearGradient id="SVGID_00000137127783763167713880000001073967556976157115_" gradientUnits="userSpaceOnUse" x1="203.0402" y1="200.9467" x2="203.0402" y2="284.546">
						<stop  offset="0" style="stop-color:#684BC2"/>
						<stop  offset="1" style="stop-color:#2C0070"/>
					</linearGradient>
					
						<rect x="201.432" y="215.041" style="fill:url(#SVGID_00000137127783763167713880000001073967556976157115_);" width="3.216" height="3.216"/>
					
						<linearGradient id="SVGID_00000152249331966846366910000010772552999792860548_" gradientUnits="userSpaceOnUse" x1="209.7425" y1="200.9467" x2="209.7425" y2="284.546">
						<stop  offset="0" style="stop-color:#684BC2"/>
						<stop  offset="1" style="stop-color:#2C0070"/>
					</linearGradient>
					
						<rect x="208.135" y="215.041" style="fill:url(#SVGID_00000152249331966846366910000010772552999792860548_);" width="3.216" height="3.216"/>
					
						<linearGradient id="SVGID_00000066504397210582026400000017236354596047020964_" gradientUnits="userSpaceOnUse" x1="216.4449" y1="200.9472" x2="216.4449" y2="284.5439">
						<stop  offset="0" style="stop-color:#684BC2"/>
						<stop  offset="1" style="stop-color:#2C0070"/>
					</linearGradient>
					
						<rect x="214.837" y="215.041" style="fill:url(#SVGID_00000066504397210582026400000017236354596047020964_);" width="3.216" height="3.216"/>
				</g>
				<g>
					
						<linearGradient id="SVGID_00000147921406370286024780000015519480454476812458_" gradientUnits="userSpaceOnUse" x1="203.0402" y1="200.9471" x2="203.0402" y2="284.5438">
						<stop  offset="0" style="stop-color:#684BC2"/>
						<stop  offset="1" style="stop-color:#2C0070"/>
					</linearGradient>
					
						<rect x="201.432" y="208.407" style="fill:url(#SVGID_00000147921406370286024780000015519480454476812458_);" width="3.216" height="3.216"/>
					
						<linearGradient id="SVGID_00000139269890848223363500000017831881840327755936_" gradientUnits="userSpaceOnUse" x1="209.7425" y1="200.9471" x2="209.7425" y2="284.5438">
						<stop  offset="0" style="stop-color:#684BC2"/>
						<stop  offset="1" style="stop-color:#2C0070"/>
					</linearGradient>
					
						<rect x="208.135" y="208.407" style="fill:url(#SVGID_00000139269890848223363500000017831881840327755936_);" width="3.216" height="3.216"/>
					
						<linearGradient id="SVGID_00000135650410389353455230000004616640900425230724_" gradientUnits="userSpaceOnUse" x1="216.4449" y1="200.9471" x2="216.4449" y2="284.5438">
						<stop  offset="0" style="stop-color:#684BC2"/>
						<stop  offset="1" style="stop-color:#2C0070"/>
					</linearGradient>
					
						<rect x="214.837" y="208.407" style="fill:url(#SVGID_00000135650410389353455230000004616640900425230724_);" width="3.216" height="3.216"/>
					
						<linearGradient id="SVGID_00000041276017828674580190000014212628257497018784_" gradientUnits="userSpaceOnUse" x1="223.1472" y1="200.9471" x2="223.1472" y2="284.5438">
						<stop  offset="0" style="stop-color:#684BC2"/>
						<stop  offset="1" style="stop-color:#2C0070"/>
					</linearGradient>
					
						<rect x="221.539" y="208.407" style="fill:url(#SVGID_00000041276017828674580190000014212628257497018784_);" width="3.216" height="3.216"/>
				</g>
				<g>
					
						<linearGradient id="SVGID_00000060734747894102350830000011101083990196142769_" gradientUnits="userSpaceOnUse" x1="203.0402" y1="200.9469" x2="203.0402" y2="284.5462">
						<stop  offset="0" style="stop-color:#684BC2"/>
						<stop  offset="1" style="stop-color:#2C0070"/>
					</linearGradient>
					
						<rect x="201.432" y="201.773" style="fill:url(#SVGID_00000060734747894102350830000011101083990196142769_);" width="3.216" height="3.216"/>
					
						<linearGradient id="SVGID_00000037665827477446147640000004644220240413334169_" gradientUnits="userSpaceOnUse" x1="216.4449" y1="200.9469" x2="216.4449" y2="284.5462">
						<stop  offset="0" style="stop-color:#684BC2"/>
						<stop  offset="1" style="stop-color:#2C0070"/>
					</linearGradient>
					
						<rect x="214.837" y="201.773" style="fill:url(#SVGID_00000037665827477446147640000004644220240413334169_);" width="3.216" height="3.216"/>
					
						<linearGradient id="SVGID_00000062152068220315355540000004404842535354079654_" gradientUnits="userSpaceOnUse" x1="223.1472" y1="200.9469" x2="223.1472" y2="284.5462">
						<stop  offset="0" style="stop-color:#684BC2"/>
						<stop  offset="1" style="stop-color:#2C0070"/>
					</linearGradient>
					
						<rect x="221.539" y="201.773" style="fill:url(#SVGID_00000062152068220315355540000004404842535354079654_);" width="3.216" height="3.216"/>
				</g>
			</g>
			
				<linearGradient id="SVGID_00000160886153820452832290000000616566878404121491_" gradientUnits="userSpaceOnUse" x1="287.6964" y1="200.0759" x2="287.6964" y2="302.6742">
				<stop  offset="0" style="stop-color:#878CB4"/>
				<stop  offset="0.7889" style="stop-color:#65579A"/>
				<stop  offset="1" style="stop-color:#7774A8"/>
			</linearGradient>
			<polygon style="fill:url(#SVGID_00000160886153820452832290000000616566878404121491_);" points="271.278,197.35 
				271.278,284.331 304.114,284.331 304.114,214.563 			"/>
			<g>
				<g>
					
						<linearGradient id="SVGID_00000080910073154496094710000005072035692252079254_" gradientUnits="userSpaceOnUse" x1="952.2325" y1="-2841.022" x2="952.2325" y2="-2757.4253" gradientTransform="matrix(-1 0 0 -1 1243.28 -2575.5027)">
						<stop  offset="0" style="stop-color:#684BC2"/>
						<stop  offset="1" style="stop-color:#2C0070"/>
					</linearGradient>
					<polygon style="fill:url(#SVGID_00000080910073154496094710000005072035692252079254_);" points="289.44,224.891 
						292.655,224.891 292.655,221.675 289.44,221.675 					"/>
					
						<linearGradient id="SVGID_00000157990765253427813300000006166463086530700928_" gradientUnits="userSpaceOnUse" x1="958.9349" y1="-2841.022" x2="958.9349" y2="-2757.4253" gradientTransform="matrix(-1 0 0 -1 1243.28 -2575.5027)">
						<stop  offset="0" style="stop-color:#684BC2"/>
						<stop  offset="1" style="stop-color:#2C0070"/>
					</linearGradient>
					<polygon style="fill:url(#SVGID_00000157990765253427813300000006166463086530700928_);" points="282.737,224.891 
						285.953,224.891 285.953,221.675 282.737,221.675 					"/>
				</g>
				<g>
					
						<linearGradient id="SVGID_00000151518635267754744430000012411019449015324082_" gradientUnits="userSpaceOnUse" x1="945.5302" y1="-2841.0225" x2="945.5302" y2="-2757.4255" gradientTransform="matrix(-1 0 0 -1 1243.28 -2575.5027)">
						<stop  offset="0" style="stop-color:#684BC2"/>
						<stop  offset="1" style="stop-color:#2C0070"/>
					</linearGradient>
					<polygon style="fill:url(#SVGID_00000151518635267754744430000012411019449015324082_);" points="296.142,231.525 
						299.358,231.525 299.358,228.309 296.142,228.309 					"/>
					
						<linearGradient id="SVGID_00000072996493803861319970000017314087934747517867_" gradientUnits="userSpaceOnUse" x1="952.2325" y1="-2841.0225" x2="952.2325" y2="-2757.4255" gradientTransform="matrix(-1 0 0 -1 1243.28 -2575.5027)">
						<stop  offset="0" style="stop-color:#684BC2"/>
						<stop  offset="1" style="stop-color:#2C0070"/>
					</linearGradient>
					<polygon style="fill:url(#SVGID_00000072996493803861319970000017314087934747517867_);" points="289.44,231.525 
						292.655,231.525 292.655,228.309 289.44,228.309 					"/>
					
						<linearGradient id="SVGID_00000086689767501669264580000000243593291302220726_" gradientUnits="userSpaceOnUse" x1="965.6372" y1="-2841.0234" x2="965.6372" y2="-2757.4241" gradientTransform="matrix(-1 0 0 -1 1243.28 -2575.5027)">
						<stop  offset="0" style="stop-color:#684BC2"/>
						<stop  offset="1" style="stop-color:#2C0070"/>
					</linearGradient>
					<polygon style="fill:url(#SVGID_00000086689767501669264580000000243593291302220726_);" points="276.035,231.525 
						279.251,231.525 279.251,228.308 276.035,228.308 					"/>
				</g>
				<g>
					
						<linearGradient id="SVGID_00000180351105432858714680000009964303864582200992_" gradientUnits="userSpaceOnUse" x1="952.2325" y1="-2841.0222" x2="952.2325" y2="-2757.4255" gradientTransform="matrix(-1 0 0 -1 1243.28 -2575.5027)">
						<stop  offset="0" style="stop-color:#684BC2"/>
						<stop  offset="1" style="stop-color:#2C0070"/>
					</linearGradient>
					<polygon style="fill:url(#SVGID_00000180351105432858714680000009964303864582200992_);" points="289.44,238.158 
						292.655,238.158 292.655,234.942 289.44,234.942 					"/>
					
						<linearGradient id="SVGID_00000000191695126687669520000015580429182732502679_" gradientUnits="userSpaceOnUse" x1="958.9349" y1="-2841.0222" x2="958.9349" y2="-2757.4255" gradientTransform="matrix(-1 0 0 -1 1243.28 -2575.5027)">
						<stop  offset="0" style="stop-color:#684BC2"/>
						<stop  offset="1" style="stop-color:#2C0070"/>
					</linearGradient>
					<polygon style="fill:url(#SVGID_00000000191695126687669520000015580429182732502679_);" points="282.737,238.158 
						285.953,238.158 285.953,234.942 282.737,234.942 					"/>
				</g>
				<g>
					
						<linearGradient id="SVGID_00000065766226832574918200000005983640448846838168_" gradientUnits="userSpaceOnUse" x1="945.5302" y1="-2841.0225" x2="945.5302" y2="-2757.4255" gradientTransform="matrix(-1 0 0 -1 1243.28 -2575.5027)">
						<stop  offset="0" style="stop-color:#684BC2"/>
						<stop  offset="1" style="stop-color:#2C0070"/>
					</linearGradient>
					<polygon style="fill:url(#SVGID_00000065766226832574918200000005983640448846838168_);" points="296.142,244.792 
						299.358,244.792 299.358,241.576 296.142,241.576 					"/>
					
						<linearGradient id="SVGID_00000142885836859019178140000011392715536518799750_" gradientUnits="userSpaceOnUse" x1="958.9349" y1="-2841.0225" x2="958.9349" y2="-2757.4258" gradientTransform="matrix(-1 0 0 -1 1243.28 -2575.5027)">
						<stop  offset="0" style="stop-color:#684BC2"/>
						<stop  offset="1" style="stop-color:#2C0070"/>
					</linearGradient>
					<polygon style="fill:url(#SVGID_00000142885836859019178140000011392715536518799750_);" points="282.737,244.792 
						285.953,244.792 285.953,241.576 282.737,241.576 					"/>
					
						<linearGradient id="SVGID_00000059303187501266306510000000300077988019293332_" gradientUnits="userSpaceOnUse" x1="965.6372" y1="-2841.0229" x2="965.6372" y2="-2757.4238" gradientTransform="matrix(-1 0 0 -1 1243.28 -2575.5027)">
						<stop  offset="0" style="stop-color:#684BC2"/>
						<stop  offset="1" style="stop-color:#2C0070"/>
					</linearGradient>
					<polygon style="fill:url(#SVGID_00000059303187501266306510000000300077988019293332_);" points="276.035,244.792 
						279.251,244.792 279.251,241.576 276.035,241.576 					"/>
				</g>
				<g>
					
						<linearGradient id="SVGID_00000026149251136458633920000008799928327330568087_" gradientUnits="userSpaceOnUse" x1="945.5302" y1="-2841.0225" x2="945.5302" y2="-2757.4258" gradientTransform="matrix(-1 0 0 -1 1243.28 -2575.5027)">
						<stop  offset="0" style="stop-color:#684BC2"/>
						<stop  offset="1" style="stop-color:#2C0070"/>
					</linearGradient>
					<polygon style="fill:url(#SVGID_00000026149251136458633920000008799928327330568087_);" points="296.142,251.426 
						299.358,251.426 299.358,248.21 296.142,248.21 					"/>
					
						<linearGradient id="SVGID_00000158030308197674783470000004716640085781750662_" gradientUnits="userSpaceOnUse" x1="952.2325" y1="-2841.0225" x2="952.2325" y2="-2757.4258" gradientTransform="matrix(-1 0 0 -1 1243.28 -2575.5027)">
						<stop  offset="0" style="stop-color:#684BC2"/>
						<stop  offset="1" style="stop-color:#2C0070"/>
					</linearGradient>
					<polygon style="fill:url(#SVGID_00000158030308197674783470000004716640085781750662_);" points="289.439,251.426 
						292.655,251.426 292.655,248.21 289.439,248.21 					"/>
					
						<linearGradient id="SVGID_00000002381470422590510710000010629389803989177268_" gradientUnits="userSpaceOnUse" x1="958.9349" y1="-2841.0225" x2="958.9349" y2="-2757.4258" gradientTransform="matrix(-1 0 0 -1 1243.28 -2575.5027)">
						<stop  offset="0" style="stop-color:#684BC2"/>
						<stop  offset="1" style="stop-color:#2C0070"/>
					</linearGradient>
					<polygon style="fill:url(#SVGID_00000002381470422590510710000010629389803989177268_);" points="282.737,251.426 
						285.953,251.426 285.953,248.21 282.737,248.21 					"/>
				</g>
				<g>
					
						<linearGradient id="SVGID_00000149368269421901025860000003898590839467381939_" gradientUnits="userSpaceOnUse" x1="952.2325" y1="-2841.0225" x2="952.2325" y2="-2757.4258" gradientTransform="matrix(-1 0 0 -1 1243.28 -2575.5027)">
						<stop  offset="0" style="stop-color:#684BC2"/>
						<stop  offset="1" style="stop-color:#2C0070"/>
					</linearGradient>
					<polygon style="fill:url(#SVGID_00000149368269421901025860000003898590839467381939_);" points="289.439,258.06 
						292.655,258.06 292.655,254.844 289.439,254.844 					"/>
					
						<linearGradient id="SVGID_00000062170061478749363630000012747056223066061973_" gradientUnits="userSpaceOnUse" x1="958.9349" y1="-2841.0225" x2="958.9349" y2="-2757.4258" gradientTransform="matrix(-1 0 0 -1 1243.28 -2575.5027)">
						<stop  offset="0" style="stop-color:#684BC2"/>
						<stop  offset="1" style="stop-color:#2C0070"/>
					</linearGradient>
					<polygon style="fill:url(#SVGID_00000062170061478749363630000012747056223066061973_);" points="282.737,258.06 
						285.953,258.06 285.953,254.844 282.737,254.844 					"/>
					
						<linearGradient id="SVGID_00000167379487304627366000000002212517739135435454_" gradientUnits="userSpaceOnUse" x1="965.6372" y1="-2841.0225" x2="965.6372" y2="-2757.4258" gradientTransform="matrix(-1 0 0 -1 1243.28 -2575.5027)">
						<stop  offset="0" style="stop-color:#684BC2"/>
						<stop  offset="1" style="stop-color:#2C0070"/>
					</linearGradient>
					<polygon style="fill:url(#SVGID_00000167379487304627366000000002212517739135435454_);" points="276.035,258.06 
						279.251,258.06 279.251,254.844 276.035,254.844 					"/>
				</g>
				<g>
					
						<linearGradient id="SVGID_00000060010697399586358100000010788945993500068025_" gradientUnits="userSpaceOnUse" x1="945.5302" y1="-2841.0227" x2="945.5302" y2="-2757.4233" gradientTransform="matrix(-1 0 0 -1 1243.28 -2575.5027)">
						<stop  offset="0" style="stop-color:#684BC2"/>
						<stop  offset="1" style="stop-color:#2C0070"/>
					</linearGradient>
					<polygon style="fill:url(#SVGID_00000060010697399586358100000010788945993500068025_);" points="296.142,264.694 
						299.358,264.694 299.358,261.478 296.142,261.478 					"/>
					
						<linearGradient id="SVGID_00000111182746854071804430000017946325785117467780_" gradientUnits="userSpaceOnUse" x1="958.9349" y1="-2841.0225" x2="958.9349" y2="-2757.4258" gradientTransform="matrix(-1 0 0 -1 1243.28 -2575.5027)">
						<stop  offset="0" style="stop-color:#684BC2"/>
						<stop  offset="1" style="stop-color:#2C0070"/>
					</linearGradient>
					<polygon style="fill:url(#SVGID_00000111182746854071804430000017946325785117467780_);" points="282.737,264.694 
						285.953,264.694 285.953,261.478 282.737,261.478 					"/>
					
						<linearGradient id="SVGID_00000020399185267091455440000015513223339872127933_" gradientUnits="userSpaceOnUse" x1="965.6372" y1="-2841.0225" x2="965.6372" y2="-2757.4258" gradientTransform="matrix(-1 0 0 -1 1243.28 -2575.5027)">
						<stop  offset="0" style="stop-color:#684BC2"/>
						<stop  offset="1" style="stop-color:#2C0070"/>
					</linearGradient>
					<polygon style="fill:url(#SVGID_00000020399185267091455440000015513223339872127933_);" points="276.035,264.694 
						279.251,264.694 279.251,261.478 276.035,261.478 					"/>
				</g>
			</g>
		</g>
	</g>
</g>
<g id="TEXTS">
	<text transform="matrix(1 0 0 1 105.8926 351.7877)" style="fill:#4A2F81; font-family:'BebasNeue'; font-size:70px;">BUILDING</text>
	<text transform="matrix(1 0 0 1 182.9673 382.4905)" style="fill:#827998; font-family:'Montserrat-Medium'; font-size:20px;">CONSTRUCTION</text>
</g>
</svg>
